<svg width="144" height="144" viewBox="0 0 144 144" fill="none" xmlns="http://www.w3.org/2000/svg">
<g clip-path="url(#clip0_1482_4)">
<path d="M105.948 51.6617C109.748 48.817 112.554 44.851 113.971 40.3254C115.387 35.7998 115.341 30.9442 113.839 26.4463C112.337 21.9484 109.455 18.0362 105.602 15.264C101.749 12.4918 97.1197 11 92.3701 11H51.6365C46.8869 11 42.2577 12.4918 38.4046 15.264C34.5515 18.0362 31.6699 21.9484 30.168 26.4463C28.666 30.9442 28.6198 35.7998 30.036 40.3254C31.4522 44.851 34.2589 48.817 38.0586 51.6617C35.1817 53.8139 32.8598 56.6194 31.2854 59.8458C29.711 63.0722 28.9293 66.6266 29.005 70.2146C29.0808 73.8026 30.0118 77.321 31.721 80.4783C33.4303 83.6356 35.8685 86.3409 38.8337 88.3702C35.4609 90.9299 32.7984 94.3067 31.0984 98.1807C29.3984 102.055 28.717 106.298 29.1189 110.508C29.5207 114.718 30.9925 118.757 33.3948 122.24C35.7971 125.724 39.0504 128.538 42.8467 130.416C46.643 132.294 50.8567 133.174 55.0887 132.972C59.3207 132.77 63.4311 131.493 67.0305 129.262C70.6299 127.031 73.5994 123.919 75.6576 120.223C77.7158 116.526 78.7948 112.366 78.7922 108.136V87.8055C83.5937 91.4002 89.629 92.9437 95.5705 92.0964C101.512 91.2491 106.873 88.0804 110.474 83.2875C114.075 78.4945 115.621 72.4699 114.772 66.5389C113.924 60.6079 110.749 55.2564 105.948 51.6617ZM105.948 33.5898C105.948 37.1846 104.517 40.6321 101.971 43.1739C99.4248 45.7158 95.9712 47.1437 92.3701 47.1437H78.7922V20.0359H92.3701C95.9712 20.0359 99.4248 21.4639 101.971 24.0058C104.517 26.5476 105.948 29.9951 105.948 33.5898ZM38.0586 33.5898C38.0586 29.9951 39.4891 26.5476 42.0355 24.0058C44.5818 21.4639 48.0354 20.0359 51.6365 20.0359H69.7403V47.1437H51.6365C48.0354 47.1437 44.5818 45.7158 42.0355 43.1739C39.4891 40.6321 38.0586 37.1846 38.0586 33.5898ZM51.6365 83.2875C48.0354 83.2875 44.5818 81.8595 42.0355 79.3176C39.4891 76.7758 38.0586 73.3283 38.0586 69.7336C38.0586 66.1389 39.4891 62.6914 42.0355 60.1495C44.5818 57.6077 48.0354 56.1797 51.6365 56.1797H69.7403V83.2875H51.6365ZM69.7403 108.136C69.7403 111.264 68.8113 114.321 67.0706 116.921C65.33 119.522 62.856 121.549 59.9615 122.746C57.0669 123.942 53.8819 124.256 50.8091 123.645C47.7362 123.035 44.9137 121.529 42.6983 119.318C40.4829 117.106 38.9742 114.289 38.363 111.221C37.7517 108.154 38.0654 104.974 39.2644 102.085C40.4634 99.1956 42.4937 96.7259 45.0987 94.9884C47.7038 93.2508 50.7664 92.3234 53.8995 92.3234H69.7403V108.136ZM92.3701 83.2875C89.6847 83.2875 87.0595 82.4926 84.8267 81.0032C82.5938 79.5139 80.8535 77.3971 79.8258 74.9204C78.7981 72.4438 78.5292 69.7186 79.0531 67.0894C79.577 64.4602 80.8702 62.0451 82.7691 60.1495C84.668 58.254 87.0873 56.9631 89.7212 56.4401C92.355 55.9171 95.0851 56.1855 97.5661 57.2114C100.047 58.2373 102.168 59.9745 103.66 62.2034C105.152 64.4324 105.948 67.0529 105.948 69.7336C105.948 73.3283 104.517 76.7758 101.971 79.3176C99.4248 81.8595 95.9712 83.2875 92.3701 83.2875Z" fill="white"/>
</g>
<defs>
<clipPath id="clip0_1482_4">
<rect width="144" height="144" fill="white"/>
</clipPath>
</defs>
</svg>
