<svg width="144" height="144" viewBox="0 0 144 144" fill="none" xmlns="http://www.w3.org/2000/svg">
<g clip-path="url(#clip0_1435_6)">
<path d="M9 9V135H135V9H9ZM76.5 106.875C76.5 119.14 69.255 125.12 58.7672 125.12C49.2947 125.12 43.7963 120.215 41.0063 114.294L50.6475 108.458C52.5066 111.758 53.9184 114.547 57.9769 114.547C61.3519 114.547 64.125 113.026 64.125 107.106V67.5H76.5V106.875ZM104.442 124.838C93.4481 124.838 86.3438 119.877 82.8759 113.026L92.5312 107.438C95.0625 111.583 98.3672 114.345 104.203 114.345C109.108 114.345 111.957 112.174 111.957 108.79C111.957 104.732 109.024 103.295 103.61 100.915L100.651 99.6441C92.1066 96.0103 86.4422 91.4428 86.4422 81.7987C86.4422 72.9197 93.2062 66.4341 103.778 66.4341C111.307 66.4341 116.716 68.7741 120.611 75.6253L111.375 81.5625C109.344 77.9259 107.156 76.5 103.764 76.5C100.297 76.5 98.0972 78.6994 98.0972 81.5625C98.0972 85.1147 100.297 86.5519 105.37 88.7512L108.329 90.0197C118.395 94.3341 124.062 98.7384 124.062 108.627C124.065 119.287 115.692 124.838 104.442 124.838Z" fill="white"/>
</g>
<defs>
<clipPath id="clip0_1435_6">
<rect width="144" height="144" fill="white"/>
</clipPath>
</defs>
</svg>
