<svg width="144" height="144" viewBox="0 0 144 144" fill="none" xmlns="http://www.w3.org/2000/svg">
<g clip-path="url(#clip0_1435_6)">
<path d="M127.613 31.2691L78.0582 1.54841C76.2782 0.533654 74.2647 0 72.2158 0C70.1669 0 68.1533 0.533654 66.3733 1.54841L16.8155 31.2659C15.0296 32.3603 13.5561 33.8968 12.5374 35.727C11.5187 37.5572 10.9892 39.6192 11.0002 41.7137V101.069C10.9895 103.165 11.5189 105.228 12.5375 107.06C13.5561 108.891 15.0295 110.43 16.8155 111.526L29.8107 119.287L29.884 119.328C36.4454 122.685 38.9578 122.685 41.8686 122.685C52.1156 122.685 58.4825 116.054 58.4825 105.376V47.8256C58.4884 47.1071 58.2091 46.4156 57.7059 45.9027C57.2026 45.3899 56.5164 45.0976 55.798 45.0901H48.6627C47.9442 45.0976 47.2581 45.3899 46.7548 45.9027C46.2516 46.4156 45.9723 47.1071 45.9782 47.8256V105.376C46.0042 106.2 45.8168 107.017 45.4341 107.747C45.0514 108.477 44.4866 109.096 43.7943 109.543C41.9132 110.691 39.1809 110.449 36.0979 108.858L23.6447 101.362C23.597 101.33 23.5581 101.286 23.5314 101.235C23.5047 101.184 23.4911 101.127 23.4916 101.069V42.5522C23.4937 42.485 23.5118 42.4192 23.5446 42.3604C23.5773 42.3016 23.6237 42.2515 23.6798 42.2143L72.0898 12.5637C72.126 12.5458 72.1658 12.5364 72.2062 12.5364C72.2466 12.5364 72.2864 12.5458 72.3226 12.5637L120.761 42.2143C120.816 42.2545 120.861 42.3073 120.892 42.3683C120.922 42.4293 120.938 42.4968 120.937 42.565V101.069C120.938 101.129 120.926 101.189 120.901 101.245C120.876 101.3 120.839 101.349 120.793 101.388L72.313 130.289C72.2304 130.318 72.1405 130.318 72.0579 130.289L59.678 122.937C59.3105 122.697 58.8859 122.558 58.4475 122.535C58.009 122.512 57.5723 122.606 57.1817 122.806L57.0733 122.87C53.6555 124.895 52.7373 125.421 49.5682 126.575C49.0517 126.763 47.837 127.212 47.7318 128.414C47.6265 129.616 48.7807 130.471 49.8073 131.067L66.3542 141.228C68.1172 142.284 70.1335 142.843 72.1887 142.844H72.3736C74.3773 142.813 76.3377 142.255 78.0582 141.228L127.613 111.536C129.398 110.436 130.87 108.896 131.889 107.063C132.907 105.23 133.437 103.166 133.428 101.069V41.7137C133.438 39.6198 132.908 37.5586 131.89 35.729C130.871 33.8995 129.398 32.3635 127.613 31.2691Z" fill="white"/>
<path d="M88.7548 91.2012C76.8659 91.2012 74.3313 87.8791 73.5789 82.5165C73.4942 81.878 73.183 81.2912 72.702 80.8628C72.221 80.4345 71.6021 80.1931 70.9581 80.1827H64.6455C63.934 80.1978 63.2575 80.494 62.7639 81.0067C62.2704 81.5194 62 82.2067 62.012 82.9182C62.012 87.5666 63.6444 102.739 88.7676 102.739C96.5405 102.739 103.006 100.922 107.46 97.482C111.914 94.0419 114.299 89.0364 114.299 83.0712C114.299 71.0994 106.488 67.8219 91.1046 65.6794C75.4663 63.5051 75.4663 62.3987 75.4663 59.9757C75.4663 58.2317 75.4663 54.1476 86.7718 54.1476C94.8157 54.1476 99.123 55.1647 100.5 60.5241C100.622 61.1182 100.944 61.653 101.411 62.0397C101.878 62.4264 102.463 62.6419 103.07 62.6506H109.405C109.778 62.6469 110.147 62.5637 110.485 62.4064C110.824 62.2492 111.125 62.0216 111.369 61.7388C111.856 61.1702 112.099 60.4323 112.045 59.6856C111.225 48.3514 102.939 42.603 86.7813 42.603C72.0963 42.603 63.3319 49.2186 63.3319 60.2977C63.3319 72.4449 72.4152 75.8786 86.0608 77.3005C102.002 78.9488 102.002 81.3528 102.002 83.4761C102.012 86.7855 100.637 91.2012 88.7548 91.2012Z" fill="white"/>
</g>
<defs>
<clipPath id="clip0_1435_6">
<rect width="144" height="144" fill="white"/>
</clipPath>
</defs>
</svg>
