<svg width="144" height="144" viewBox="0 0 144 144" fill="none" xmlns="http://www.w3.org/2000/svg">
<g clip-path="url(#clip0_1436_11)">
<path d="M118.393 49.6146C116.859 49.0906 115.314 48.6026 113.758 48.1507C114.016 47.1007 114.254 46.0448 114.472 44.9828C117.982 27.9135 115.687 14.1621 107.855 9.63528C100.355 5.29146 88.0553 9.81827 75.6479 20.6418C74.4279 21.7098 73.2329 22.8097 72.063 23.9417C71.283 23.1897 70.4831 22.4537 69.6631 21.7338C56.6586 10.1603 43.6242 5.28546 35.8005 9.82727C28.3008 14.1801 26.0719 27.1065 29.2308 43.2849C29.5468 44.8848 29.9018 46.4777 30.2957 48.0637C28.5029 48.5719 26.7252 49.1321 24.965 49.7436C9.73759 55.0684 0 63.417 0 72.0747C0 81.0203 10.4516 89.9899 26.3299 95.4287C27.6178 95.8667 28.9178 96.2737 30.2297 96.6496C29.8038 98.3476 29.4268 100.064 29.0988 101.8C26.0989 117.7 28.4388 130.32 35.9235 134.646C43.6542 139.113 56.6226 134.523 69.2641 123.454C70.2641 122.578 71.264 121.653 72.264 120.679C73.5279 121.901 74.8279 123.087 76.1638 124.236C88.4033 134.79 100.49 139.053 107.963 134.715C115.687 130.233 118.198 116.674 114.937 100.177C114.687 98.9175 114.399 97.6316 114.073 96.3196C114.985 96.0497 115.878 95.7707 116.752 95.4827C133.251 90.0019 144 81.1403 144 72.0837C143.994 63.384 133.944 54.9814 118.393 49.6146ZM79.6947 25.2916C90.3232 16.019 100.259 12.3592 104.789 14.9751C109.609 17.7619 111.484 28.9995 108.454 43.7379C108.254 44.6978 108.038 45.6548 107.807 46.6087C101.464 45.166 95.0316 44.1478 88.5533 43.5609C84.8441 38.2177 80.778 33.1313 76.3828 28.3365C77.4588 27.2925 78.5607 26.2776 79.6887 25.2916H79.6947ZM42.5172 79.4723C43.8192 81.9922 45.1801 84.4811 46.6001 86.939C48.046 89.4469 49.5529 91.9178 51.1209 94.3517C46.6633 93.8671 42.2336 93.1532 37.8494 92.2128C39.1214 88.097 40.6873 83.8222 42.5172 79.4723ZM42.5172 64.974C40.7173 60.7171 39.1934 56.5293 37.9424 52.4855C42.0522 51.5645 46.4321 50.8115 50.9979 50.2416C49.4679 52.6295 47.996 55.0524 46.5821 57.5103C45.1681 59.9682 43.8102 62.4561 42.5082 64.974H42.5172ZM45.7871 72.2247C47.683 68.2708 49.7249 64.393 51.9128 60.5911C54.0987 56.7913 56.4257 53.0785 58.8935 49.4526C63.1774 49.1286 67.5692 48.9576 72.006 48.9576C76.4428 48.9576 80.8616 49.1286 85.1425 49.4556C87.5844 53.0735 89.8973 56.7733 92.0812 60.5551C94.2651 64.337 96.334 68.1968 98.2879 72.1347C96.36 76.1025 94.2961 79.9963 92.0962 83.8162C89.9143 87.616 87.6143 91.3399 85.1964 94.9877C80.9216 95.2877 76.4968 95.4527 71.997 95.4527C67.4972 95.4527 63.1564 95.3117 58.9595 95.0387C56.4736 91.4009 54.1277 87.672 51.9218 83.8522C49.7159 80.0323 47.668 76.1565 45.7781 72.2247H45.7871ZM97.4209 86.897C98.8709 84.3811 100.263 81.8323 101.597 79.2504C103.425 83.3965 105.039 87.6339 106.433 91.9458C101.997 92.9447 97.5119 93.7107 92.9961 94.2407C94.5201 91.8228 95.995 89.3749 97.4209 86.897ZM101.537 64.977C100.209 62.4471 98.8279 59.9472 97.3939 57.4773C95.994 55.0414 94.5351 52.6355 93.0171 50.2596C97.6099 50.8415 102.017 51.6155 106.148 52.5605C104.819 56.7739 103.281 60.9179 101.537 64.977ZM72.066 32.7433C75.0615 36.0165 77.89 39.4387 80.5406 42.9969C74.8709 42.7269 69.1971 42.7269 63.5194 42.9969C66.3182 39.295 69.1831 35.8602 72.066 32.7433ZM38.8964 15.158C43.7142 12.3622 54.3667 16.358 65.5953 26.3386C66.3122 26.9775 67.0352 27.6465 67.7552 28.3395C63.3374 33.1336 59.2426 38.2156 55.4977 43.5519C49.0337 44.1343 42.6144 45.1363 36.2805 46.5517C35.9145 45.0798 35.5845 43.5979 35.2905 42.1059C32.5756 28.2375 34.3726 17.7829 38.8964 15.158ZM31.8737 90.7099C30.6737 90.3679 29.4888 89.9969 28.3188 89.5969C21.2991 87.197 15.5004 84.0652 11.5195 80.6543C7.95567 77.5974 6.14974 74.5466 6.14974 72.0747C6.14974 66.8219 13.9674 60.1202 27.0049 55.5753C28.6428 55.0054 30.2947 54.4844 31.9607 54.0124C33.8969 60.235 36.2419 66.323 38.9804 72.2367C36.2093 78.232 33.8353 84.4031 31.8737 90.7099ZM65.2113 118.81C59.6225 123.706 54.0247 127.176 49.09 128.925C44.6561 130.494 41.1253 130.539 38.9924 129.306C34.4506 126.681 32.5606 116.545 35.1375 102.949C35.4435 101.349 35.7935 99.7495 36.1875 98.1496C42.5848 99.5276 49.0685 100.469 55.5937 100.966C59.3752 106.331 63.5038 111.441 67.9532 116.266C67.0592 117.145 66.1442 117.991 65.2113 118.81ZM72.237 111.844C69.3211 108.691 66.4112 105.202 63.5733 101.452C66.3312 101.56 69.1391 101.614 71.997 101.614C74.9309 101.614 77.8348 101.551 80.6966 101.422C78.0556 105.038 75.2321 108.516 72.237 111.844ZM109.591 120.421C108.733 125.052 107.009 128.142 104.876 129.378C100.337 132.012 90.6322 128.589 80.1687 119.563C78.9687 118.531 77.7688 117.424 76.5478 116.263C80.9105 111.419 84.9424 106.288 88.6163 100.903C95.1776 100.348 101.693 99.3402 108.115 97.8886C108.409 99.0765 108.669 100.24 108.895 101.38C110.338 108.67 110.545 115.264 109.591 120.421ZM114.811 89.6299C114.025 89.8909 113.215 90.1429 112.393 90.3889C110.379 84.137 107.943 78.0292 105.101 72.1077C107.836 66.2651 110.177 60.2459 112.108 54.0904C113.581 54.5194 115.012 54.9694 116.389 55.4464C129.715 60.0422 137.844 66.8459 137.844 72.0747C137.844 77.6544 129.064 84.8961 114.811 89.6299Z" fill="white"/>
<path d="M71.9973 84.9605C74.5503 84.9688 77.0484 84.2193 79.1752 82.807C81.3021 81.3946 82.9619 79.3829 83.9447 77.0266C84.9275 74.6703 85.1889 72.0753 84.696 69.5703C84.203 67.0653 82.9778 64.7629 81.1754 62.9547C79.3731 61.1465 77.0747 59.9137 74.5713 59.4126C72.0679 58.9114 69.4721 59.1644 67.1126 60.1395C64.7531 61.1146 62.736 62.7679 61.3167 64.8901C59.8974 67.0123 59.1398 69.508 59.1398 72.061C59.1363 73.7525 59.4661 75.428 60.1105 76.9919C60.7548 78.5558 61.7011 79.9774 62.8952 81.1754C64.0893 82.3734 65.5078 83.3243 67.0696 83.9737C68.6313 84.6232 70.3058 84.9585 71.9973 84.9605Z" fill="white"/>
</g>
<defs>
<clipPath id="clip0_1436_11">
<rect width="144" height="144" fill="white"/>
</clipPath>
</defs>
</svg>
