<svg width="144" height="144" viewBox="0 0 144 144" fill="none" xmlns="http://www.w3.org/2000/svg">
<g clip-path="url(#clip0_1482_14)">
<path d="M24.021 12V86.1447C24.021 94.2686 26.1371 100.504 30.3694 104.852C34.6017 109.086 40.5497 111.203 48.2136 111.203C55.9918 111.203 61.9971 109.086 66.2293 104.852C70.4616 100.504 72.5777 94.2686 72.5777 86.1447V12H96.7703V85.9731C96.7703 96.1565 94.5398 104.795 90.0788 111.889C85.7321 118.869 79.8412 124.132 72.4062 127.679C65.0855 131.226 56.9069 133 47.8704 133C38.9483 133 30.827 131.226 23.5063 127.679C16.3 124.132 10.5807 118.869 6.34841 111.889C2.11614 104.795 0 96.1565 0 85.9731V12H24.021Z" fill="white"/>
<path d="M144 12V131.799H119.979V12H144Z" fill="white"/>
</g>
<defs>
<clipPath id="clip0_1482_14">
<rect width="144" height="144" fill="white"/>
</clipPath>
</defs>
</svg>
