<svg width="144" height="144" viewBox="0 0 144 144" fill="none" xmlns="http://www.w3.org/2000/svg">
<g clip-path="url(#clip0_1482_16)">
<path d="M16.1779 31V80.8918C16.1779 86.3583 17.603 90.5544 20.4534 93.4802C23.3038 96.3289 27.3097 97.7533 32.4713 97.7533C37.7098 97.7533 41.7543 96.3289 44.6046 93.4802C47.455 90.5544 48.8802 86.3583 48.8802 80.8918V31H65.1736V80.7763C65.1736 87.6287 63.6714 93.4417 60.6669 98.2153C57.7395 102.912 53.7721 106.454 48.7647 108.84C43.8343 111.227 38.3261 112.421 32.2401 112.421C26.2312 112.421 20.7616 111.227 15.8312 108.84C10.9778 106.454 7.12596 102.912 4.27557 98.2153C1.42519 93.4417 0 87.6287 0 80.7763V31H16.1779Z" fill="white"/>
<path d="M125.395 111.612L107.947 84.4719L92.1153 111.612H73.8575L99.2798 70.9596L73.5108 31H92.1153L109.564 58.0247L125.28 31H143.538L118.231 71.5371L144 111.612H125.395Z" fill="white"/>
</g>
<defs>
<clipPath id="clip0_1482_16">
<rect width="144" height="144" fill="white"/>
</clipPath>
</defs>
</svg>
