<svg width="321" height="321" viewBox="0 0 321 321" fill="none" xmlns="http://www.w3.org/2000/svg">
<rect width="321" height="321" fill="#F3CCD3"/>
<path d="M161.5 30C153.709 30 146.096 44.3689 138.731 45.8229C131.361 47.2521 118.207 37.1948 110.99 40.1316C103.773 43.0683 102.799 59.1908 96.525 63.3136C90.3061 67.5182 74.7441 62.8037 69.257 68.3352C63.7698 73.8667 68.3873 89.3914 64.2327 95.6441C59.956 101.814 44.0202 103.326 40.9056 110.468C37.791 117.61 48.4334 130.383 46.822 137.716C45.368 145.081 31.0001 152.696 31.0001 160.488C31.0001 168.279 45.368 175.919 46.822 183.284C48.4334 190.617 37.791 203.39 40.9056 210.532C44.0202 217.674 59.956 219.186 64.2327 225.356C68.3873 231.609 63.7698 247.133 69.257 252.665C74.7441 258.196 90.3061 253.482 96.525 257.686C102.799 261.809 103.773 277.932 110.99 280.868C118.207 283.805 131.361 273.748 138.731 275.177C146.096 276.631 153.709 291 161.5 291C169.291 291 176.904 276.631 184.269 275.177C191.639 273.748 204.793 283.804 212.01 280.867C219.227 277.93 220.201 261.808 226.475 257.685C232.694 253.48 248.256 258.195 253.743 252.663C259.23 247.132 254.613 231.607 258.767 225.354C263.044 219.185 278.98 217.672 282.094 210.53C285.209 203.388 274.567 190.615 276.178 183.283C277.632 175.918 292 168.278 292 160.486L292 160.488C292 152.696 277.632 145.082 276.178 137.717C274.567 130.385 285.209 117.612 282.094 110.47C278.98 103.328 263.044 101.815 258.767 95.6457C254.613 89.3931 259.23 73.8683 253.743 68.3368C248.256 62.8054 232.694 67.5199 226.475 63.3152C220.201 59.1925 219.227 43.07 212.01 40.1332C204.793 37.1964 191.639 47.252 184.269 45.8228C176.904 44.3688 169.291 30 161.5 30Z" fill="#D02E2A"/>
<path d="M161.5 42C154.425 42 147.512 55.0476 140.825 56.3679C134.133 57.6657 122.188 48.5332 115.635 51.1999C109.082 53.8666 108.196 68.5066 102.5 72.2503C96.8527 76.0683 82.7217 71.7873 77.7391 76.8101C72.7565 81.833 76.9494 95.9302 73.1769 101.608C69.2934 107.21 54.8229 108.584 51.9947 115.069C49.1665 121.554 58.8303 133.153 57.3671 139.811C56.0468 146.499 43.0001 153.414 43.0001 160.489C43.0001 167.564 56.0468 174.501 57.3671 181.189C58.8303 187.847 49.1665 199.446 51.9947 205.931C54.8229 212.416 69.2934 213.79 73.1769 219.392C76.9494 225.07 72.7565 239.167 77.7391 244.19C82.7217 249.213 96.8527 244.932 102.5 248.75C108.196 252.493 109.082 267.133 115.635 269.8C122.188 272.467 134.133 263.334 140.825 264.632C147.512 265.952 154.425 279 161.5 279C168.575 279 175.488 265.952 182.175 264.632C188.867 263.334 200.812 272.465 207.365 269.799C213.918 267.132 214.804 252.492 220.5 248.748C226.147 244.93 240.278 249.211 245.261 244.188C250.243 239.166 246.051 225.068 249.823 219.391C253.707 213.788 268.177 212.415 271.005 205.93C273.833 199.444 264.17 187.846 265.633 181.188C266.953 174.5 280 167.562 280 160.487L280 160.489C280 153.414 266.953 146.5 265.633 139.812C264.17 133.154 273.833 121.556 271.005 115.07C268.177 108.585 253.707 107.212 249.823 101.609C246.051 95.9316 250.243 81.8345 245.261 76.8116C240.278 71.7888 226.147 76.0697 220.5 72.2517C214.804 68.5081 213.918 53.8681 207.365 51.2014C200.812 48.5347 188.867 57.6656 182.175 56.3678C175.488 55.0476 168.575 42 161.5 42Z" fill="#DC3732"/>
<path d="M108 159.867C108 143.333 108 126.978 108 110.622C108 109.2 108 107.778 108 106.356C108.372 103.867 109.49 102.622 112.097 102.267C115.449 101.911 118.988 101.911 122.526 102.267C124.947 102.622 126.25 103.867 126.437 106.178C126.623 107.956 126.623 109.556 126.623 111.333C126.623 137.289 126.623 163.422 126.623 189.556C126.623 190.978 126.623 192.4 126.623 193.822C126.809 198.267 128.113 199.511 132.768 199.689C134.072 199.689 136.168 199.689 137.285 199.689C150.322 199.689 165.549 199.689 178.585 199.689C179.888 199.689 181.192 199.689 182.682 199.689C185.289 200.044 186.779 201.289 186.965 203.778C187.337 207.156 187.337 210.356 186.965 213.733C186.779 216.4 185.475 217.467 182.682 217.822C181.564 218 180.261 218 178.957 218C160.148 218 138.169 218 119.546 217.822C117.125 217.822 114.704 217.822 112.469 217.644C109.49 217.467 108.372 216.222 108 213.556C108 212.133 108 210.711 108 209.289C108 192.756 108 176.4 108 159.867Z" fill="white"/>
<path d="M209.208 102.294C211.778 102.472 214.657 104.285 215 106.949V213.65C214.62 216.136 213.481 217.379 210.823 217.734C207.406 218.089 203.799 218.089 200.192 217.734C197.724 217.379 196.395 216.136 196.206 213.828C196.016 212.053 196.016 210.455 196.016 208.68V153.89C196.016 150.533 196.363 146.221 194.887 146C193.56 145.801 192.314 146.351 191.167 147.936C190.734 148.534 174.437 167.678 169.304 173.958C168.525 174.91 167.056 174.877 166.318 173.894L135.273 133.314C134.623 132.448 134.272 131.396 134.272 130.315V105.668C134.272 103.92 135.222 102.406 136.696 102.406C138.169 102.406 139.119 103.542 140.342 105.668L167.027 139.845C167.405 140.33 168.141 140.331 168.521 139.848L193.815 106.667C195.558 104.267 196.573 102.419 199.142 102.242C202.74 101.887 205.782 101.939 209.208 102.294Z" fill="white"/>
</svg>
