<svg width="500" height="500" viewBox="0 0 500 500" fill="none" xmlns="http://www.w3.org/2000/svg">
<path d="M250 31.25C129.199 31.25 31.25 131.738 31.25 255.566C31.25 354.688 93.9453 438.672 180.859 468.359C182.078 468.624 183.323 468.755 184.57 468.75C192.676 468.75 195.801 462.793 195.801 457.617C195.801 452.246 195.605 438.184 195.508 419.434C188.272 421.13 180.869 422.014 173.438 422.07C131.348 422.07 121.777 389.355 121.777 389.355C111.816 363.477 97.4609 356.543 97.4609 356.543C78.418 343.164 97.3633 342.773 98.8281 342.773H98.9258C120.898 344.727 132.422 366.016 132.422 366.016C143.359 385.156 158.008 390.527 171.094 390.527C179.746 390.354 188.265 388.358 196.094 384.668C198.047 370.215 203.711 360.352 209.961 354.688C161.426 349.023 110.352 329.785 110.352 243.848C110.352 219.336 118.848 199.316 132.812 183.691C130.566 178.027 123.047 155.176 134.961 124.316C136.559 123.934 138.202 123.77 139.844 123.828C147.754 123.828 165.625 126.855 195.117 147.363C230.953 137.337 268.852 137.337 304.688 147.363C334.18 126.855 352.051 123.828 359.961 123.828C361.603 123.77 363.246 123.934 364.844 124.316C376.758 155.176 369.238 178.027 366.992 183.691C380.957 199.414 389.453 219.434 389.453 243.848C389.453 329.98 338.281 348.926 289.551 354.492C297.363 361.426 304.395 375.098 304.395 395.996C304.395 425.977 304.102 450.195 304.102 457.52C304.102 462.793 307.129 468.75 315.234 468.75C316.546 468.756 317.856 468.625 319.141 468.359C406.152 438.672 468.75 354.59 468.75 255.566C468.75 131.738 370.801 31.25 250 31.25Z" fill="white"/>
</svg>
