<svg width="500" height="500" viewBox="0 0 500 500" fill="none" xmlns="http://www.w3.org/2000/svg">
<path fill-rule="evenodd" clip-rule="evenodd" d="M405.01 94.8242C384.786 74.5905 360.759 58.5568 334.314 47.646C307.868 36.7353 279.526 31.163 250.918 31.25C130.859 31.25 33.125 128.496 33.0762 248.047C33.025 284.716 42.3337 320.767 60.0892 352.797C61.3899 355.143 61.7572 357.902 61.0454 360.489L35.8478 452.044C33.8047 459.468 40.5654 466.318 48.0152 464.373L142.91 439.6C145.363 438.96 147.965 439.285 150.216 440.452C181.286 456.565 215.792 464.983 250.83 464.971H250.918C370.967 464.971 468.691 367.715 468.75 248.174C468.823 219.664 463.225 191.424 452.282 165.097C441.339 138.77 425.27 114.883 405.01 94.8242ZM250.918 428.379H250.84C218.431 428.388 186.612 419.715 158.691 403.262L155.665 401.473C153.37 400.118 150.63 399.734 148.052 400.407L91.9362 415.058C88.2115 416.03 84.8312 412.606 85.8522 408.894L100.676 355.004C101.421 352.295 100.993 349.398 99.4952 347.021L97.5391 343.916C79.4178 315.226 69.8169 281.98 69.8535 248.047C69.8535 148.701 151.113 67.8711 250.986 67.8711C298.896 67.7856 344.879 86.7337 378.819 120.548C412.76 154.362 431.879 200.274 431.973 248.184C431.934 347.539 350.713 428.379 250.918 428.379ZM350.225 293.428C344.785 290.713 317.998 277.607 313.037 275.801C308.076 273.994 304.414 273.086 300.791 278.516C297.168 283.945 286.728 296.094 283.555 299.756C280.381 303.418 277.207 303.818 271.768 301.104C266.328 298.389 248.779 292.676 227.988 274.219C211.807 259.854 200.889 242.119 197.715 236.699C194.541 231.279 197.373 228.34 200.098 225.645C202.549 223.213 205.537 219.316 208.262 216.152C210.986 212.988 211.895 210.723 213.701 207.109C215.508 203.496 214.609 200.332 213.252 197.627C211.895 194.922 201.006 168.252 196.475 157.402C192.051 146.836 187.568 148.272 184.229 148.105C181.055 147.949 177.393 147.91 173.789 147.91C171.034 147.982 168.324 148.621 165.827 149.787C163.33 150.953 161.101 152.621 159.277 154.688C154.287 160.117 140.225 173.242 140.225 199.883C140.225 226.523 159.756 252.305 162.451 255.918C165.146 259.531 200.83 314.248 255.43 337.715C265.568 342.057 275.928 345.864 286.465 349.121C299.502 353.242 311.367 352.666 320.742 351.27C331.201 349.717 352.969 338.164 357.49 325.508C362.012 312.852 362.021 302.012 360.664 299.756C359.307 297.5 355.674 296.133 350.225 293.428Z" fill="#F3CCD3"/>
</svg>
