<svg width="500" height="500" viewBox="0 0 500 500" fill="none" xmlns="http://www.w3.org/2000/svg">
<path fill-rule="evenodd" clip-rule="evenodd" d="M31.25 255.566C31.25 131.738 129.199 31.25 250 31.25C370.801 31.25 468.75 131.738 468.75 255.566C468.75 354.59 406.152 438.672 319.141 468.359C317.856 468.625 316.546 468.756 315.234 468.75C307.129 468.75 304.102 462.793 304.102 457.52C304.102 455.097 304.134 450.826 304.177 445.109C304.263 433.543 304.395 416.06 304.395 395.996C304.395 394.991 304.378 394.002 304.346 393.03H328.277C339.078 393.03 349.436 388.758 357.073 381.154C364.71 373.549 369 363.236 369 352.482V317.529C381.551 301.167 389.453 277.695 389.453 243.848C389.453 219.434 380.957 199.414 366.992 183.691C369.238 178.027 376.758 155.176 364.844 124.316C363.246 123.934 361.603 123.77 359.961 123.828C352.221 123.828 334.946 126.726 306.58 146.06C305.285 144.542 303.924 143.072 302.499 141.653C288.576 127.789 269.691 120 250 120C230.309 120 211.424 127.789 197.501 141.653C196.049 143.098 194.665 144.597 193.348 146.144C164.909 126.735 147.594 123.828 139.844 123.828C138.202 123.77 136.559 123.934 134.961 124.316C123.047 155.176 130.566 178.027 132.812 183.691C118.848 199.316 110.352 219.336 110.352 243.848C110.352 277.834 118.34 301.389 131 317.797V352.482C131 358.841 132.501 365.047 135.306 370.63C134.32 369.189 133.357 367.653 132.422 366.016C132.422 366.016 120.898 344.727 98.9258 342.773H98.8281C97.3633 342.773 78.418 343.164 97.4609 356.543C97.4609 356.543 111.816 363.477 121.777 389.355C121.777 389.355 131.348 422.07 173.438 422.07C180.869 422.014 188.272 421.13 195.508 419.434C195.562 429.843 195.646 438.808 195.711 445.643C195.762 451.119 195.801 455.228 195.801 457.617C195.801 462.793 192.676 468.75 184.57 468.75C183.323 468.755 182.078 468.624 180.859 468.359C93.9453 438.672 31.25 354.688 31.25 255.566Z" fill="white"/>
<path d="M329.069 218.762H300.793V193.508C300.793 180.113 295.441 167.266 285.916 157.793C276.39 148.321 263.471 143 250 143C236.529 143 223.61 148.321 214.084 157.793C204.559 167.266 199.207 180.113 199.207 193.508V218.762H170.931C166.441 218.762 162.134 220.536 158.959 223.693C155.784 226.851 154 231.133 154 235.598V353.45C154 357.916 155.784 362.198 158.959 365.355C162.134 368.513 166.441 370.286 170.931 370.286H329.069C333.559 370.286 337.866 368.513 341.041 365.355C344.216 362.198 346 357.916 346 353.45V235.598C346 231.133 344.216 226.851 341.041 223.693C337.866 220.536 333.559 218.762 329.069 218.762ZM258.465 301.501V328.196C258.465 330.429 257.574 332.57 255.986 334.149C254.398 335.727 252.245 336.614 250 336.614C247.755 336.614 245.602 335.727 244.014 334.149C242.426 332.57 241.535 330.429 241.535 328.196V301.501C235.886 299.515 231.126 295.608 228.095 290.469C225.063 285.331 223.956 279.292 224.969 273.42C225.982 267.549 229.05 262.223 233.631 258.383C238.211 254.543 244.009 252.437 250 252.437C255.991 252.437 261.789 254.543 266.369 258.383C270.95 262.223 274.018 267.549 275.031 273.42C276.044 279.292 274.937 285.331 271.905 290.469C268.874 295.608 264.114 299.515 258.465 301.501ZM283.862 218.762H216.138V193.508C216.138 184.578 219.706 176.013 226.056 169.698C232.406 163.384 241.019 159.836 250 159.836C258.981 159.836 267.594 163.384 273.944 169.698C280.294 176.013 283.862 184.578 283.862 193.508V218.762Z" fill="white"/>
</svg>
