<svg width="500" height="500" viewBox="0 0 500 500" fill="none" xmlns="http://www.w3.org/2000/svg">
<path d="M433.76 31.25H68.6328C48.6816 31.25 31.25 45.6055 31.25 65.3223V431.26C31.25 451.084 48.6816 468.75 68.6328 468.75H433.652C453.711 468.75 468.75 450.967 468.75 431.26V65.3223C468.867 45.6055 453.711 31.25 433.76 31.25ZM166.865 395.928H104.189V201.055H166.865V395.928ZM137.695 171.426H137.246C117.187 171.426 104.199 156.494 104.199 137.803C104.199 118.77 117.529 104.189 138.037 104.189C158.545 104.189 171.094 118.662 171.543 137.803C171.533 156.494 158.545 171.426 137.695 171.426ZM395.928 395.928H333.252V289.375C333.252 263.848 324.131 246.406 301.455 246.406C284.131 246.406 273.877 258.125 269.316 269.541C267.607 273.643 267.148 279.229 267.148 284.932V395.928H204.473V201.055H267.148V228.174C276.27 215.186 290.518 196.494 323.672 196.494C364.814 196.494 395.937 223.613 395.937 282.08L395.928 395.928Z" fill="#F3CCD3"/>
</svg>
