<svg width="500" height="501" viewBox="0 0 500 501" fill="none" xmlns="http://www.w3.org/2000/svg">
<path d="M350.154 32H149.846C118.867 32.0334 89.1658 44.4397 67.2601 66.4969C45.3543 88.554 33.0331 118.46 33 149.654V351.346C33.0331 382.54 45.3543 412.446 67.2601 434.503C89.1658 456.56 118.867 468.967 149.846 469H350.154C381.133 468.967 410.834 456.56 432.74 434.503C454.646 412.446 466.967 382.54 467 351.346V149.654C466.967 118.46 454.646 88.554 432.74 66.4969C410.834 44.4397 381.133 32.0334 350.154 32ZM250 351.346C230.191 351.346 210.828 345.432 194.358 334.35C177.887 323.269 165.05 307.519 157.47 289.092C149.89 270.665 147.906 250.388 151.771 230.826C155.635 211.264 165.174 193.295 179.181 179.191C193.187 165.087 211.033 155.483 230.461 151.592C249.889 147.7 270.027 149.697 288.327 157.33C306.628 164.963 322.27 177.889 333.275 194.473C344.28 211.057 350.154 230.555 350.154 250.5C350.126 277.238 339.565 302.872 320.789 321.778C302.012 340.685 276.554 351.318 250 351.346ZM375.192 149.654C370.24 149.654 365.399 148.175 361.282 145.405C357.164 142.635 353.955 138.697 352.06 134.09C350.165 129.484 349.669 124.414 350.635 119.524C351.601 114.633 353.986 110.141 357.487 106.615C360.989 103.089 365.451 100.688 370.308 99.7152C375.165 98.7424 380.199 99.2417 384.774 101.15C389.349 103.058 393.26 106.29 396.011 110.436C398.762 114.582 400.231 119.456 400.231 124.442C400.231 131.129 397.593 137.541 392.897 142.27C388.202 146.998 381.833 149.654 375.192 149.654ZM316.769 250.5C316.769 263.797 312.853 276.795 305.517 287.851C298.18 298.907 287.752 307.525 275.551 312.613C263.351 317.702 249.926 319.033 236.974 316.439C224.022 313.845 212.125 307.442 202.787 298.039C193.449 288.637 187.09 276.658 184.514 263.616C181.937 250.575 183.26 237.057 188.313 224.772C193.367 212.487 201.925 201.987 212.905 194.6C223.885 187.212 236.794 183.269 250 183.269C267.708 183.269 284.691 190.352 297.213 202.961C309.735 215.569 316.769 232.669 316.769 250.5Z" fill="#F3CCD3"/>
</svg>
