<svg width="100" height="100" viewBox="0 0 100 100" fill="none" xmlns="http://www.w3.org/2000/svg">
<circle cx="50" cy="50" r="50" fill="#FFFDFB"/>
<path d="M58.0938 53.9375H40.9062V50.5H23.7188V71.5547C23.7188 71.8966 23.8546 72.2244 24.0963 72.4662C24.3381 72.7079 24.6659 72.8438 25.0078 72.8438H73.9922C74.3341 72.8438 74.6619 72.7079 74.9037 72.4662C75.1454 72.2244 75.2812 71.8966 75.2812 71.5547V50.5H58.0938V53.9375ZM75.2812 36.3203C75.2812 35.9784 75.1454 35.6506 74.9037 35.4088C74.6619 35.1671 74.3341 35.0312 73.9922 35.0312H63.25V29.0156C63.25 28.7877 63.1595 28.5691 62.9983 28.408C62.8371 28.2468 62.6185 28.1562 62.3906 28.1562H36.6094C36.3815 28.1562 36.1629 28.2468 36.0017 28.408C35.8405 28.5691 35.75 28.7877 35.75 29.0156V35.0312H25.0078C24.6659 35.0312 24.3381 35.1671 24.0963 35.4088C23.8546 35.6506 23.7188 35.9784 23.7188 36.3203V47.0625H75.2812V36.3203ZM58.9531 35.0312H40.0469V32.4531H58.9531V35.0312Z" fill="#F3CCD3"/>
</svg>
